<svg xmlns="http://www.w3.org/2000/svg" viewBox="0 0 32 32" id="cloth"><path fill="#f15743" d="M16.011 6a.5.5 0 0 1 0-1 .5.5 0 0 0 .5-.5c0-.421-.602-.646-.878-.328a.5.5 0 0 1-.756-.654 1.502 1.502 0 0 1 2.634.982c0 .827-.673 1.5-1.5 1.5z"></path><path fill="#f15743" d="M16.011 8a.5.5 0 0 1-.5-.5v-2a.5.5 0 0 1 1 0v2a.5.5 0 0 1-.5.5zm-8.07 17.314a.505.505 0 0 1-.132-.018l-3.86-1.049a.5.5 0 0 1 .263-.965l3.86 1.049a.5.5 0 0 1-.131.983zm16.118 0a.5.5 0 0 1-.131-.982l3.86-1.049a.5.5 0 1 1 .263.965l-3.86 1.049a.509.509 0 0 1-.132.017z"></path><circle cx="16.011" cy="14" r=".5" fill="#f15743"></circle><circle cx="16.011" cy="16" r=".5" fill="#f15743"></circle><circle cx="16.011" cy="18" r=".5" fill="#f15743"></circle><circle cx="16.011" cy="20" r=".5" fill="#f15743"></circle><circle cx="16.011" cy="22" r=".5" fill="#f15743"></circle><circle cx="16.011" cy="24" r=".5" fill="#f15743"></circle><circle cx="16.011" cy="26" r=".5" fill="#f15743"></circle><path fill="#2c4355" d="M18.718 8.879a.497.497 0 0 1-.294-.096l-.944-.688A.5.5 0 0 0 17.186 8h-2.349a.495.495 0 0 0-.294.096l-.944.688a.501.501 0 0 1-.589-.809l.944-.688c.257-.188.563-.287.882-.287h2.349c.319 0 .625.099.883.287l.944.688a.501.501 0 0 1-.294.904z"></path><path fill="#2c4355" d="M14.718 13.121a.502.502 0 0 1-.354-.146l-2.829-2.828a.5.5 0 0 1 0-.708l1.414-1.414a.5.5 0 0 1 .707 0l2.829 2.828a.5.5 0 0 1 0 .708l-1.414 1.414a.498.498 0 0 1-.353.146zm-2.121-3.328 2.122 2.121.707-.707-2.122-2.121-.707.707z"></path><path fill="#2c4355" d="M17.304 13.121a.502.502 0 0 1-.354-.146l-1.414-1.414a.5.5 0 0 1 0-.708l2.829-2.828a.5.5 0 0 1 .707 0l1.414 1.414a.5.5 0 0 1 0 .708l-2.829 2.828a.498.498 0 0 1-.353.146zm-.707-1.914.707.707 2.122-2.121-.707-.707-2.122 2.121zM21.511 29h-11a.5.5 0 0 1-.5-.5v-11a.5.5 0 0 1 1 0V28h10V17.5a.5.5 0 0 1 1 0v11a.5.5 0 0 1-.5.5z"></path><path fill="#2c4355" d="M7.368 27.314a.498.498 0 0 1-.131-.018l-3.86-1.049a.502.502 0 0 1-.351-.613l3.252-11.967a4.498 4.498 0 0 1 2.385-2.872l3.01-1.454a.498.498 0 1 1 .434.9l-3.01 1.454a3.498 3.498 0 0 0-1.855 2.234L4.121 25.414l2.92.793 2.995-9.116a.5.5 0 0 1 .95.312L7.842 26.97a.498.498 0 0 1-.474.344zm17.264 0a.501.501 0 0 1-.475-.344l-3.144-9.567a.5.5 0 0 1 .95-.312l2.995 9.116 2.92-.793-3.121-11.483a3.498 3.498 0 0 0-1.855-2.234l-3.01-1.454a.5.5 0 1 1 .434-.9l3.01 1.454a4.493 4.493 0 0 1 2.385 2.872l3.252 11.967a.496.496 0 0 1-.351.613l-3.86 1.049a.52.52 0 0 1-.13.016z"></path></svg>