<svg xmlns="http://www.w3.org/2000/svg" data-name="Layer 1" viewBox="0 0 168 168" id="vegetable-bowl"><circle cx="2" cy="147.317" r="2" fill="#2d4356"></circle><path fill="#2d4356" d="M11 145.31673H8a2 2 0 0 0 0 4h3a2 2 0 0 0 0-4zM160 145.31673h-3a2 2 0 0 0 0 4h3a2 2 0 0 0 0-4z"></path><circle cx="166" cy="147.317" r="2" fill="#2d4356"></circle><path fill="#0bceb2" d="M118.15387 153.31673h-8.30774a2.00641 2.00641 0 0 0 0 4h8.30774a2.00641 2.00641 0 0 0 0-4zM58.15387 153.31673H49.84613a2.00641 2.00641 0 0 0 0 4h8.30774a2.00641 2.00641 0 0 0 0-4zM104 153.31673H64a2 2 0 0 0 0 4H79.94v2H72a2 2 0 0 0 0 4H97a2 2 0 0 0 0-4H88.06v-2H104a2 2 0 0 0 0-4z"></path><path fill="#2d4356" d="M113.72339 63.81136a17.85269 17.85269 0 0 0-.89386 20.50537h5.0791a13.81146 13.81146 0 0 1-1.02509-18.05225h-.00049a13.47 13.47 0 0 1 3.11328-2.91748 13.07372 13.07372 0 0 0-.01318 6.26953 1.99963 1.99963 0 0 0 2.65283 1.35791l8.53467-3.2876 2.36523 6.7207a1.99245 1.99245 0 0 0 2.124 1.32178 7.691 7.691 0 0 0 4.85938-3.20166 13.62271 13.62271 0 0 1-3.7406 11.78906h5.08722a17.75232 17.75232 0 0 0 .67957-18.061l-3.53088-8.52509c.66113-1.23114 2.30444-3.69775 4.72882-3.38409a2 2 0 1 0 .51367-3.9668c-4.873-.6261-7.678 3.42413-8.76483 5.45435l-10.37872 1.41333-.00763.00183a17.21467 17.21467 0 0 0-11.382 6.56213zM126.105 61.1498l9.46265-1.28864 3.05206 7.36847a7.41253 7.41253 0 0 1-2.05353 3.739l-2.30566-6.55225a2.00023 2.00023 0 0 0-2.60547-1.20215l-8.0498 3.10059A5.92418 5.92418 0 0 1 126.105 61.1498zM104.59 53.4167a11.18431 11.18431 0 0 0-4.71 1.06c-.91-4.18-4.05-8.06-5.02-9.19-.95-1.93-3.37-3.13-6.09-2.95-2.7.17-4.86 1.67-5.38 3.74005a2.146 2.146 0 0 0-.01.91c.03.16.69 3.67-1.89 8.24a11.11016 11.11016 0 0 0-12.11-.03l1.21 3.95a7.90252 7.90252 0 0 1 4.81995-1.73 7.73688 7.73688 0 0 1 4.5 1.52 22.55832 22.55832 0 0 0-.31995 25.38h5.27c-3-2.51-5.02-7.15-5.02-12.45 0-6.99 3.50995-12.84 8.16-14.16a6.33435 6.33435 0 0 1 4 0c4.65 1.31995 8.16 7.17 8.16 14.16 0 5.3-2.02 9.94-5.02 12.45h5.27a22.55833 22.55833 0 0 0-.31995-25.38 7.73688 7.73688 0 0 1 4.5-1.52 8.567 8.567 0 0 1 6.49 3.34 22.28155 22.28155 0 0 1 2.79-2.79A12.4316 12.4316 0 0 0 104.59 53.4167zm-14.59 0a10.88936 10.88936 0 0 0-3.59.63 16.55453 16.55453 0 0 0 .99005-7.15 2.70176 2.70176 0 0 1 1.62-.56995 2.51861 2.51861 0 0 1 2.24.73 2.12192 2.12192 0 0 0 .4.66 20.56345 20.56345 0 0 1 4.26 7.41A11.50231 11.50231 0 0 0 90 53.4167zM22.94263 44.76985c2.99127-1.59882 7.26147.03534 10.16046 1.66492a12.08406 12.08406 0 0 0-2.78979 14.69647l.01526.03284.01007.02179a1.9971 1.9971 0 0 0 .22119.33331l.00391.006 18.75439 22.7915H61.782a1.97867 1.97867 0 0 0-.27448-.877A1.999 1.999 0 0 0 58.761 82.7635a9.73322 9.73322 0 0 1-4.38611 1.40308l-3.59009-4.36292a14.1359 14.1359 0 0 0 4.93811-2.422A2.00018 2.00018 0 1 0 53.29419 74.203 9.88809 9.88809 0 0 1 47.858 76.24678l-4.10809-4.99243A14.20375 14.20375 0 0 0 49.96216 67.2a1.99982 1.99982 0 0 0-2.97363-2.6748A10.11248 10.11248 0 0 1 40.9342 67.8326l-5.73132-6.96509 2.23956-1.19727L58.87183 48.21419l2.54657 8.30219a10.06055 10.06055 0 0 1-6.6286 3.83893 2.00033 2.00033 0 0 0 .28076 3.98047 2.0279 2.0279 0 0 0 .28564-.02051 14.14765 14.14765 0 0 0 7.40912-3.40765l1.95911 6.387a10.04085 10.04085 0 0 1-4.649 3.28381 1.99995 1.99995 0 1 0 1.293 3.78516 14.162 14.162 0 0 0 4.69476-2.70441l1.63916 5.344a9.67044 9.67044 0 0 1-3.6601 2.93756 2 2 0 1 0 1.69727 3.62207A14.05625 14.05625 0 0 0 69.05 81.397l.89557 2.91968h4.184L61.993 44.7491l-.00122-.004-.00812-.02655c-.0097-.03168-.02777-.05908-.039-.09009a1.98292 1.98292 0 0 0-.10309-.25513c-.00848-.01605-.01892-.03058-.02747-.04657l-.01855-.03143a11.91 11.91 0 0 0-7.04187-5.81262 11.72389 11.72389 0 0 0-6.88831-.01562c.29156-3.33368 1.34747-7.79041 4.33313-9.38672a1.99989 1.99989 0 0 0-1.88574-3.52734C44.465 28.679 43.8045 37.125 43.77539 40.39827l-1.516.81049-3.725-7.0766a2.00023 2.00023 0 0 0-3.54 1.86328l3.73694 7.09937-1.83606.98163c-2.75952-1.83514-10.02106-5.94183-15.8374-2.8349a2.00009 2.00009 0 0 0 1.88477 3.52832zm14.18408 3.71826l10.48633-5.606A8.04461 8.04461 0 0 1 57.16132 44.593L33.16284 57.42268A8.01885 8.01885 0 0 1 37.12671 48.48811z"></path><path fill="#0bceb2" d="M120.00024,113.31673a2.0001,2.0001,0,0,0-2-2h-68a2,2,0,0,0,0,4h68A2.0001,2.0001,0,0,0,120.00024,113.31673Z"></path><path fill="#2d4356" d="M110.532 123.31673a2.0001 2.0001 0 0 0-2-2H59.46851a2 2 0 1 0 0 4H108.532A2.0001 2.0001 0 0 0 110.532 123.31673zM59.46851 105.31673H108.532a2 2 0 0 0 0-4H59.46851a2 2 0 1 0 0 4z"></path><path fill="#2d4356" d="M150.72131,145.31673H117.24268a3.98855,3.98855,0,0,0-.35968-1.67426l-3.03424-6.58374a55.13878,55.13878,0,0,0,18.1571-10.63519c10.31415-9.15686,15.99438-21.36487,15.99438-34.37518a4,4,0,0,0-4-4h-120a4,4,0,0,0-4,4A44.82,44.82,0,0,0,31.15778,121.513,54.34613,54.34613,0,0,0,54.153,137.05611l-3.03546,6.58636a3.98855,3.98855,0,0,0-.35968,1.67426H17.27869a2.017,2.017,0,1,0,0,4H150.72131a2.017,2.017,0,1,0,0-4ZM24.00024,92.04836h120c0,12.25171-5.6,23.3493-14.65,31.38391a51.49788,51.49788,0,0,1-20.99768,11.13446H59.63446C39.02332,129.0873,24.00024,112.12416,24.00024,92.04836Zm30.75,53.26837,3.1109-6.75h52.2782l3.1109,6.75Z"></path><path fill="#0bceb2" d="M92,57.70674v26.61H88v-26.61A6.33435,6.33435,0,0,1,92,57.70674Z"></path><path fill="#2d4356" d="M125.0099 28.31673a3 3 0 1 0-3-3A3.00344 3.00344 0 0 0 125.0099 28.31673zm0-4.5a1.5 1.5 0 1 1-1.5 1.5A1.50148 1.50148 0 0 1 125.0099 23.81673zM164 30.31673a2 2 0 1 0 2 2A2.00229 2.00229 0 0 0 164 30.31673zm0 3a1 1 0 1 1 1-1A1.001 1.001 0 0 1 164 33.31673zM106 40.00433a2 2 0 1 0 2 2A2.00229 2.00229 0 0 0 106 40.00433zm0 3a1 1 0 1 1 1-1A1.001 1.001 0 0 1 106 43.00433zM158.30471 9.31673a2 2 0 1 0 2 2A2.00229 2.00229 0 0 0 158.30471 9.31673zm0 3a1 1 0 1 1 1-1A1.001 1.001 0 0 1 158.30471 12.31673zM73.38 33.31673a2 2 0 1 0-2 2A2.00229 2.00229 0 0 0 73.38 33.31673zm-3 0a1 1 0 1 1 1 1A1.001 1.001 0 0 1 70.38 33.31673z"></path><polygon fill="#0bceb2" points="10.888 68.328 12.375 66.372 11.436 65.841 10.481 68.031 10.45 68.031 9.48 65.856 8.525 66.404 9.996 68.313 9.996 68.344 7.695 68.046 7.695 69.11 10.011 68.813 10.011 68.845 8.525 70.753 9.416 71.317 10.434 69.11 10.465 69.11 11.404 71.301 12.39 70.738 10.888 68.86 10.888 68.829 13.25 69.11 13.25 68.046 10.888 68.359 10.888 68.328"></polygon><polygon fill="#0bceb2" points="16.039 21.585 15.183 22.684 15.697 23.008 16.283 21.737 16.3 21.737 16.841 22.999 17.409 22.675 16.544 21.593 16.544 21.575 17.904 21.737 17.904 21.125 16.544 21.305 16.544 21.287 17.4 20.161 16.859 19.855 16.31 21.116 16.292 21.116 15.733 19.863 15.183 20.179 16.03 21.278 16.03 21.296 14.705 21.125 14.705 21.737 16.039 21.566 16.039 21.585"></polygon><polygon fill="#0bceb2" points="157.724 54.875 157.724 53.831 155.407 54.138 155.407 54.108 156.866 52.189 155.945 51.668 155.009 53.816 154.977 53.816 154.027 51.683 153.089 52.22 154.533 54.093 154.533 54.123 152.276 53.831 152.276 54.875 154.548 54.584 154.548 54.614 153.089 56.486 153.964 57.039 154.963 54.875 154.992 54.875 155.913 57.024 156.881 56.471 155.407 54.629 155.407 54.599 157.724 54.875"></polygon><polygon fill="#0bceb2" points="76.831 6.788 78.089 5.133 77.294 4.683 76.487 6.536 76.46 6.536 75.64 4.696 74.831 5.16 76.076 6.775 76.076 6.801 74.13 6.55 74.13 7.45 76.089 7.199 76.089 7.225 74.831 8.84 75.586 9.317 76.447 7.45 76.473 7.45 77.267 9.303 78.102 8.827 76.831 7.238 76.831 7.212 78.829 7.45 78.829 6.55 76.831 6.814 76.831 6.788"></polygon></svg>