<svg  class="digiclub__content-left-item-link-icon" xmlns="http://www.w3.org/2000/svg" enable-background="new 0 0 64 64" viewBox="0 0 64 64" id="gold-cup"><path d="M14.3828,38.2346l-0.0025-0.0001c-0.3461-0.7833-0.6419-1.5548-0.8784-2.2919c-0.0031-0.0097-0.0118-0.0175-0.0153-0.0271
		C12.8323,33.9282,12.5,31.924,12.5,29.9578c0-5.71,2.0801-10.7456,6.0166-14.562l0.0368-0.0356
		c0.4571-0.4547,0.9773-0.9161,1.6097-1.4224c0.0684-0.062,0.1279-0.1338,0.1768-0.2124c0.6475-1.0435,1.0156-2.1724,1.126-3.4507
		c0.1875-2.1016-0.3652-3.9561-1.7383-5.8364c-0.1699-0.2319-0.4307-0.3799-0.7168-0.4063
		c-0.2852-0.0249-0.5713,0.0728-0.7793,0.2705c-1.6748,1.5884-2.5479,3.3145-2.748,5.4355
		c-0.1545,1.7143,0.2008,3.2994,1.0812,4.8232c-0.6438,0.6735-1.239,1.3824-1.7852,2.1257
		c-0.0627-0.3549-0.1412-0.7105-0.2531-1.0695c-0.6299-2.0215-1.8467-3.5264-3.8311-4.7358
		c-0.2451-0.1494-0.542-0.1851-0.8184-0.1006c-0.2744,0.0854-0.499,0.2852-0.6152,0.5479c-0.9453,2.123-1.0928,4.0522-0.4639,6.0728
		c0.5621,1.8038,1.5956,3.1946,3.2207,4.3328c-0.3971,1.0342-0.7184,2.1016-0.9597,3.1987
		c-0.1679-0.2499-0.3467-0.496-0.5471-0.7357c-1.3584-1.624-3.0596-2.5459-5.3555-2.9004c-0.2842-0.043-0.5732,0.0366-0.7939,0.2207
		c-0.2197,0.1846-0.3506,0.4546-0.3584,0.7422c-0.0586,2.3218,0.5459,4.1602,1.9043,5.7852c1.209,1.447,2.6946,2.3331,4.6273,2.761
		c0.04,0.9263,0.1395,1.8562,0.3094,2.7878c-0.0075-0.004-0.0141-0.0088-0.0217-0.0128c-1.877-0.9795-3.7998-1.1812-6.0586-0.6357
		c-0.2793,0.0679-0.5156,0.2524-0.6494,0.5068c-0.1338,0.2544-0.1523,0.5542-0.0488,0.8228
		c0.8291,2.166,2.0898,3.6362,3.9717,4.6294c1.1885,0.6196,2.4209,0.9272,3.7295,0.9272c0.3683,0,0.7449-0.0324,1.1262-0.0812
		c0.473,0.9767,1.0219,1.9627,1.6458,2.9477c-0.3943-0.0939-0.7982-0.1671-1.2211-0.2049
		c-2.1006-0.1895-3.9629,0.3628-5.8379,1.7358c-0.2324,0.1699-0.3799,0.4312-0.4053,0.7178
		c-0.0254,0.2861,0.0732,0.5698,0.2715,0.7778c1.6016,1.6841,3.3291,2.5562,5.4375,2.7446
		c0.2666,0.0239,0.5293,0.0356,0.7881,0.0356c1.5316,0,2.9408-0.4231,4.341-1.2953c0.645,0.7435,1.3181,1.4748,2.0266,2.1817
		c0.1978,0.1974,0.5227,0.1935,0.7177-0.0068l0.6968-0.7159c0.1903-0.1955,0.1852-0.5054-0.0079-0.6981
		C18.3009,44.9309,15.8371,41.489,14.3828,38.2346z M10.708,16.8069c-0.3682-1.1821-0.3877-2.2993-0.0449-3.5059
		c0.9668,0.7983,1.585,1.729,1.9531,2.9116c0.3691,1.1821,0.3887,2.2993,0.0459,3.5059
		C11.6943,18.9202,11.0762,17.9895,10.708,16.8069z M12.9619,46.4773c-1.2334-0.1104-2.2734-0.5186-3.2578-1.2954
		c1.1064-0.5894,2.2002-0.8066,3.4365-0.6963c1.2334,0.1104,2.2734,0.5186,3.2578,1.2949
		C15.293,46.3704,14.1953,46.5872,12.9619,46.4773z M17.4746,9.9216c0.1172-1.2402,0.5264-2.2817,1.2988-3.2607
		c0.5918,1.1108,0.8105,2.207,0.7002,3.438c0,0.001,0,0.002,0,0.0034c-0.0771,0.9004-0.3232,1.6968-0.749,2.4287
		c-0.2334,0.188-0.459,0.3774-0.6758,0.5674C17.5566,12.0828,17.373,11.0505,17.4746,9.9216z M7.4433,26.7629
		c-0.7949-0.9512-1.2422-1.9751-1.3887-3.2197c1.1992,0.3657,2.1279,0.9868,2.9229,1.9375
		c0.7939,0.9497,1.2412,1.9736,1.3877,3.2192C9.166,28.3342,8.2373,27.7131,7.4433,26.7629z M8.9668,37.1335
		c-1.0996-0.5806-1.9053-1.3589-2.5156-2.4531c1.2559-0.1211,2.3477,0.1001,3.4424,0.6719
		c0.6992,0.3691,1.2783,0.8257,1.7666,1.3921c0.1172,0.3555,0.2471,0.7163,0.3877,1.082
		C10.9443,37.8704,9.9512,37.6462,8.9668,37.1335z"></path><path d="M39.6289,41.0681c1.417-1.3848,2.6152-2.9258,3.5557-4.5723C45.0264,33.3293,46,29.6975,46,25.9929
		c0-2.9253-0.5869-5.7515-1.7441-8.4004c-0.1592-0.3643-0.5186-0.5996-0.916-0.5996H20.6601c-0.3975,0-0.7568,0.2354-0.916,0.5996
		C18.5869,20.2415,18,23.0676,18,25.9929c0,3.7046,0.9736,7.3364,2.8115,10.4961c0.9443,1.6533,2.1426,3.1943,3.5742,4.5933
		c1.1006,1.0635,2.3145,2.0034,3.6143,2.8008c0,0.0366,0,0.0732,0,0.1099c0,3.5588-0.9947,7.0011-2.8604,10H25
		c-1.6543,0-3,1.3457-3,3v2c0,0.5522,0.4473,1,1,1h18c0.5527,0,1-0.4478,1-1v-2c0-1.6543-1.3457-3-3-3h-0.1396
		C36.9947,50.994,36,47.5518,36,43.9929c0-0.0366,0-0.0732,0-0.1099C37.2998,43.0857,38.5156,42.1438,39.6289,41.0681z M40,56.9929
		v1H24v-1c0-0.5513,0.4482-1,1-1h14C39.5517,55.9929,40,56.4417,40,56.9929z M36.5332,53.9929h-9.0664
		c1.6621-3.0571,2.5332-6.48,2.5332-10c0-0.2583-0.001-0.5166-0.0234-0.7744c-0.0273-0.3262-0.2129-0.6182-0.4961-0.7817
		c-1.3408-0.7734-2.5879-1.7134-3.7109-2.7993c-1.2852-1.2554-2.3691-2.6484-3.2256-4.1475C20.8799,32.6287,20,29.3445,20,25.9929
		c0-2.4282,0.4463-4.7798,1.3271-7h21.3457c0.8809,2.2202,1.3271,4.5718,1.3271,7c0,3.3516-0.8799,6.6357-2.5479,9.5039
		c-0.8525,1.4922-1.9365,2.8853-3.2266,4.147c-1.1182,1.0796-2.3652,2.0195-3.7061,2.793
		c-0.2832,0.1636-0.4688,0.4556-0.4961,0.7817C34.001,43.4763,34,43.7346,34,43.9929C34,47.5129,34.8711,50.9358,36.5332,53.9929z"></path><path d="M42.6535 47.9708c-.1931.1927-.1982.5026-.0079.6981l.6968.7159c.1949.2003.5198.2042.7177.0068.7085-.7069 1.3817-1.4382 2.0266-2.1817 1.4002.8722 2.8094 1.2953 4.341 1.2953.2588 0 .5215-.0117.7881-.0356 2.1084-.1885 3.8359-1.0605 5.4375-2.7446.1982-.208.2969-.4917.2715-.7778-.0254-.2866-.1729-.5479-.4053-.7178-1.875-1.373-3.7373-1.9253-5.8379-1.7358-.4229.0378-.8268.111-1.2211.2049.6238-.985 1.1727-1.9709 1.6458-2.9477.3812.0488.7578.0812 1.1262.0812 1.3086 0 2.541-.3076 3.7295-.9272 1.8818-.9932 3.1426-2.4634 3.9717-4.6294.1035-.2686.085-.5684-.0488-.8228s-.3701-.439-.6494-.5068c-2.2588-.5454-4.1816-.3438-6.0586.6357-.0076.004-.0142.0087-.0217.0128.17-.9316.2694-1.8616.3094-2.7878 1.9327-.4279 3.4182-1.3141 4.6273-2.761 1.3584-1.625 1.9629-3.4634 1.9043-5.7852-.0078-.2876-.1387-.5576-.3584-.7422-.2207-.1841-.5098-.2637-.7939-.2207-2.2959.3545-3.9971 1.2764-5.3555 2.9004-.2004.2396-.3792.4858-.5471.7357-.2413-1.0971-.5626-2.1645-.9597-3.1987 1.6251-1.1382 2.6586-2.529 3.2207-4.3328.6289-2.0205.4814-3.9497-.4639-6.0728-.1162-.2627-.3408-.4624-.6152-.5479-.2764-.0845-.5732-.0488-.8184.1006-1.9844 1.2095-3.2012 2.7144-3.8311 4.7358-.1119.359-.1903.7147-.2531 1.0695-.5461-.7433-1.1414-1.4522-1.7852-2.1257.8804-1.5238 1.2357-3.1089 1.0812-4.8232-.2002-2.1211-1.0732-3.8472-2.748-5.4355-.208-.1978-.4941-.2954-.7793-.2705-.2861.0264-.5469.1743-.7168.4063-1.373 1.8804-1.9258 3.7349-1.7383 5.8364.1104 1.2783.4785 2.4072 1.126 3.4507.0488.0786.1084.1504.1768.2124.6324.5062 1.1526.9677 1.6097 1.4224l.0368.0356c3.9365 3.8164 6.0166 8.8521 6.0166 14.562 0 1.9662-.3323 3.9704-.9866 5.9578-.0035.0096-.0122.0174-.0153.0271-.2365.7371-.5323 1.5085-.8784 2.2919l-.0025.0001C48.1629 41.489 45.6991 44.9309 42.6535 47.9708zM51.3379 19.7185c-.3428-1.2065-.3232-2.3237.0459-3.5059.3682-1.1826.9863-2.1133 1.9531-2.9116.3428 1.2065.3232 2.3237-.0449 3.5059C52.9238 17.9895 52.3057 18.9202 51.3379 19.7185zM47.6016 45.7805c.9844-.7764 2.0244-1.1846 3.2578-1.2949 1.2363-.1104 2.3301.1069 3.4365.6963-.9844.7769-2.0244 1.1851-3.2578 1.2954C49.8047 46.5872 48.707 46.3704 47.6016 45.7805zM45.9512 13.0984c-.2168-.1899-.4424-.3794-.6758-.5674-.4258-.7319-.6719-1.5283-.749-2.4287 0-.0015 0-.0024 0-.0034-.1104-1.231.1084-2.3271.7002-3.438.7725.979 1.1816 2.0205 1.2988 3.2607C46.627 11.0505 46.4434 12.0828 45.9512 13.0984zM53.6348 28.7c.1465-1.2456.5938-2.2695 1.3877-3.2192.7949-.9507 1.7236-1.5718 2.9229-1.9375-.1465 1.2446-.5938 2.2686-1.3887 3.2197C55.7627 27.7131 54.834 28.3342 53.6348 28.7zM51.9522 37.8264c.1406-.3657.2705-.7266.3877-1.082.4883-.5664 1.0674-1.0229 1.7666-1.3921 1.0947-.5718 2.1865-.793 3.4424-.6719-.6104 1.0942-1.416 1.8726-2.5156 2.4531C54.0488 37.6462 53.0557 37.8704 51.9522 37.8264zM32 21c-4.9624 0-9 4.0376-9 9s4.0376 9 9 9 9-4.0376 9-9S36.9624 21 32 21zM32 37c-3.8599 0-7-3.1401-7-7s3.1401-7 7-7 7 3.1401 7 7S35.8599 37 32 37z"></path><path d="M29.191,26.3538l2.4473-1.2237c0.3101-0.1548,0.6787-0.1387,0.9731,0.0439c0.2944,0.1821,0.4741,0.5039,0.4741,0.8506v8.5
		c0,0.2761-0.2239,0.5-0.5,0.5h-1c-0.2761,0-0.5-0.2239-0.5-0.5v-6.8818l-1.0001,0.5c-0.247,0.1235-0.5473,0.0234-0.6708-0.2236
		l-0.4473-0.8946C28.8439,26.7776,28.944,26.4773,29.191,26.3538z"></path></svg>