<svg xmlns="http://www.w3.org/2000/svg" viewBox="0 0 96 96" id="baby"><path d="M48.279 66.025c-.129 0-.255-.003-.384-.003a1.559 1.559 0 0 1 .019-3.116c.113.021.235.003.35.003 10.943 0 18.776-6.436 21.518-17.701a1.553 1.553 0 0 1 1.643-1.184c1.773.152 2.747-.794 3.25-1.61.795-1.274.926-3.091.299-4.132-.321-.532-.787-.751-1.477-.715-.83.091-1.605-.596-1.661-1.455a1.56 1.56 0 0 1 1.46-1.655c1.821-.103 3.435.69 4.36 2.225 1.236 2.05 1.103 5.084-.322 7.376-1.102 1.77-2.815 2.842-4.819 3.055C69.153 59.166 60.39 66.025 48.28 66.025z"></path><ellipse cx="38.555" cy="38.336" rx="1.954" ry="1.947"></ellipse><path d="M38.555 41.84c-1.939 0-3.518-1.57-3.518-3.503s1.58-3.506 3.518-3.506c1.94 0 3.517 1.574 3.517 3.506s-1.578 3.502-3.517 3.502zm0-3.893a.39.39 0 0 0-.39.39c0 .426.78.426.78 0a.389.389 0 0 0-.39-.39z"></path><ellipse cx="57.897" cy="37.95" rx="1.954" ry="1.947"></ellipse><path d="M57.897 41.456c-1.94 0-3.517-1.573-3.517-3.506s1.577-3.505 3.517-3.505 3.518 1.573 3.518 3.505-1.58 3.506-3.518 3.506zm0-3.895a.389.389 0 0 0-.39.39c0 .432.78.432.78 0a.39.39 0 0 0-.39-.39z"></path><ellipse cx="48.268" cy="50.235" rx="1.37" ry="1.947"></ellipse><ellipse cx="48.268" cy="50.235" rx="2.933" ry="3.506"></ellipse><path d="M47.721 66.025c-12.11 0-20.874-6.856-24.236-18.912-2.004-.213-3.717-1.284-4.82-3.055-1.424-2.292-1.557-5.325-.321-7.376.813-1.352 2.142-2.14 3.71-2.228C22.802 19.175 34.242 7 48.198 7 62.635 7 74.38 20.03 74.38 36.046c0 .86-.7 1.558-1.564 1.558a1.56 1.56 0 0 1-1.563-1.558c0-14.297-10.342-25.93-23.055-25.93s-23.055 11.633-23.055 25.93c0 .423-.173.827-.476 1.12-.306.295-.706.45-1.141.438l-.976-.034c-.722-.06-1.203.18-1.524.712-.627 1.04-.496 2.858.298 4.133.504.812 1.474 1.743 3.251 1.61a1.574 1.574 0 0 1 1.643 1.183c2.77 11.378 10.595 17.814 21.85 17.698.826-.082 1.57.679 1.582 1.54a1.559 1.559 0 0 1-1.545 1.576c-.129 0-.257.003-.384.003z"></path><path d="m67.676 89-37.328-.006c-2.289 0-4.313-1.427-5.034-3.554-.727-2.146-1.037-3.938-1.037-5.992v-1.683c0-7.428 4.158-14.19 10.849-17.65a1.564 1.564 0 0 1 2.109.664c.397.764.099 1.704-.668 2.1-5.652 2.924-9.163 8.627-9.163 14.886v1.683c0 1.72.252 3.165.872 4.994.292.858 1.126 1.436 2.074 1.436l37.328.006c.933 0 1.785-.59 2.072-1.44.618-1.828.87-3.277.87-4.996v-1.683c0-6.68-3.999-12.71-10.187-15.367a1.558 1.558 0 1 1 1.237-2.86c7.336 3.15 12.077 10.303 12.077 18.227v1.683c0 2.057-.31 3.85-1.035 5.992-.719 2.13-2.744 3.56-5.036 3.56zM48.18 20.645h-.105a1.563 1.563 0 0 1-1.538-1.586 1.561 1.561 0 0 1 1.564-1.53c.02-.003.052 0 .078 0 1.68 0 3.06-1.348 3.087-3.028a4.195 4.195 0 0 0-1.195-3.016 4.237 4.237 0 0 0-2.987-1.29 1.562 1.562 0 0 1-1.538-1.582 1.562 1.562 0 0 1 1.564-1.534h.026c1.97.03 3.811.828 5.182 2.24s2.107 3.271 2.075 5.237c-.056 3.378-2.834 6.089-6.213 6.089z"></path><path d="M35.074 88.994a1.56 1.56 0 0 1-1.564-1.558V62.918c0-.86.7-1.558 1.564-1.558a1.56 1.56 0 0 1 1.564 1.558v24.518c0 .861-.7 1.558-1.564 1.558zm27.125 0a1.56 1.56 0 0 1-1.563-1.558V62.918c0-.86.7-1.558 1.563-1.558a1.56 1.56 0 0 1 1.564 1.558v24.518c0 .861-.7 1.558-1.564 1.558zm-13.545-8.587c-4.315 0-7.827-3.5-7.827-7.8v-8.593c0-.861.7-1.558 1.564-1.558a1.56 1.56 0 0 1 1.563 1.558v8.593c0 2.584 2.11 4.683 4.7 4.683 2.591 0 4.7-2.1 4.7-4.683v-8.593c0-.861.7-1.558 1.564-1.558a1.56 1.56 0 0 1 1.563 1.558v8.593c0 4.3-3.512 7.8-7.827 7.8z"></path></svg>