<svg  class="digiclub__content-left-item-link-icon" xmlns="http://www.w3.org/2000/svg" enable-background="new 0 0 24 24" viewBox="0 0 24 24" id="mission"><path d="M22,3h-1V2c0-0.5527-0.4478-1-1-1s-1,0.4473-1,1v1.5175c-0.5538,0.4134-1.0881,0.8461-1.6071,1.2943
		C15.8878,3.6797,14.024,3,12,3c-4.9624,0-9,4.0371-9,9s4.0376,9,9,9s9-4.0371,9-9c0-2.0241-0.6797-3.8879-1.8118-5.3929
		C19.6364,6.0881,20.0691,5.5538,20.4825,5H22c0.5522,0,1-0.4473,1-1S22.5522,3,22,3z M19,12c0,3.8594-3.1401,7-7,7s-7-3.1406-7-7
		s3.1401-7,7-7c1.4357,0,2.7709,0.4357,3.8829,1.1801c-0.2909,0.2767-0.5802,0.555-0.8662,0.8366
		c-0.2061,0.2069-0.4081,0.4178-0.6114,0.6274C13.6884,7.2464,12.8763,7,12,7c-2.7568,0-5,2.2432-5,5s2.2432,5,5,5s5-2.2432,5-5
		c0-0.8763-0.2464-1.6884-0.6442-2.4053c0.2097-0.2033,0.4206-0.4053,0.6274-0.6114c0.2816-0.286,0.5599-0.5753,0.8366-0.8663
		C18.5643,9.2291,19,10.5644,19,12z M15,12c0,1.6543-1.3457,3-3,3s-3-1.3457-3-3s1.3457-3,3-3c0.3458,0,0.6729,0.0706,0.9823,0.1787
		c-0.5925,0.6754-1.1614,1.3744-1.6894,2.1142c-0.2436,0.3425-0.2579,0.8166,0,1.1779c0.3253,0.4557,0.9584,0.5615,1.4142,0.2363
		c0.7398-0.528,1.4388-1.0969,2.1142-1.6894C14.9294,11.3271,15,11.6542,15,12z"></path></svg>