<svg xmlns="http://www.w3.org/2000/svg" viewBox="0 0 32 32" id="screw"><path fill="#010101" d="M6.744 4.916a.498.498 0 0 0-.273.14L5.057 6.472a.497.497 0 0 0-.094.576l1.414 2.83c.006.013.018.015.025.027.021.034.039.072.069.102.02.02.044.03.066.045a.499.499 0 0 0 .285.102l.002-.003c.07 0 .138-.016.203-.046.006-.003.013-.001.018-.004.025-.013.042-.035.064-.051.021-.016.047-.023.067-.043a.513.513 0 0 1 .707 0l6.717 6.717-1.06 1.06a.5.5 0 0 0 0 .707l1.413 1.414a.5.5 0 0 0 .707 0 .5.5 0 0 1 .707.707.5.5 0 0 0 0 .707l4.95 4.952c.486.487 1.128.73 1.769.73.64 0 1.28-.243 1.768-.73l1.414-1.415a2.503 2.503 0 0 0 0-3.537l-4.95-4.949a.5.5 0 0 0-.707 0 .5.5 0 0 1-.707-.707.5.5 0 0 0 0-.707l-1.414-1.414a.5.5 0 0 0-.707 0l-1.06 1.06-6.717-6.716h-.002a.5.5 0 0 1 0-.707c.019-.02.029-.045.045-.067.016-.022.036-.04.049-.064.003-.006.003-.014.006-.02.015-.033.019-.066.027-.101.006-.03.016-.058.017-.088.001-.031-.006-.06-.011-.092-.005-.032-.009-.065-.02-.096-.01-.027-.027-.049-.04-.074-.019-.032-.036-.064-.061-.092l-.01-.015c-.02-.02-.045-.027-.067-.043-.022-.016-.037-.039-.062-.051l-2.83-1.412a.494.494 0 0 0-.303-.047zm.178 1.102L8.949 7.03c-.057.16-.09.325-.09.498 0 .401.157.78.44 1.063l6.717 6.717-.707.707L8.592 9.3v-.002c-.006-.007-.016-.01-.022-.016a.516.516 0 0 0-.148-.095 1.53 1.53 0 0 0-1.383-.223L6.018 6.922l.904-.904zM18.137 14.6l.767.767a1.502 1.502 0 0 0 .293 1.707 1.534 1.534 0 0 0 1.71.293l4.655 4.656a1.504 1.504 0 0 1-.001 2.123l-1.415 1.415a1.502 1.502 0 0 1-2.12 0l-4.657-4.657a1.494 1.494 0 0 0-.293-1.707 1.503 1.503 0 0 0-1.707-.293l-.767-.767 3.535-3.537zm2.828 4.453a.497.497 0 0 0-.354.851l3.537 3.537a.497.497 0 0 0 .707 0 .5.5 0 0 0 0-.707l-3.537-3.537a.497.497 0 0 0-.353-.144zm-1.414 1.414a.497.497 0 0 0-.354.851l3.537 3.537a.497.497 0 0 0 .707 0 .5.5 0 0 0 0-.707l-3.537-3.537a.497.497 0 0 0-.353-.144z"></path></svg>