<svg xmlns="http://www.w3.org/2000/svg" width="2000" height="2000" enable-background="new 0 0 2000 2000" viewBox="0 0 2000 2000" id="shop"><path d="M1779.4385,617.5256c-0.6533-1.8677-1.4365-3.7148-2.3857-5.5205l-163.459-311.0693
	C1605.5684,285.6653,1587.916,275,1570.666,275H429.3359c-17.2524,0-34.9053,10.6665-42.9277,25.9365l-163.46,311.0684
	c-0.9482,1.8047-1.731,3.6511-2.3843,5.5181c-3.9194,5.0698-6.2573,11.4241-6.2573,18.3279
	c0,64.4985,17.6084,125.521,49.5811,171.8262c16.2725,23.5674,35.4697,42.2222,57.0576,55.446
	c0.8237,0.5046,1.6543,0.9802,2.4824,1.4673v819.2368c0,22.7026,18.4707,41.1729,41.1743,41.1729h1270.7983
	c22.7031,0,41.1738-18.4702,41.1738-41.1729V864.5898c0.8281-0.4871,1.6582-0.9624,2.4814-1.4668
	c21.5879-13.2239,40.7852-31.8789,57.0576-55.4463c31.9727-46.3049,49.5801-107.3271,49.5801-171.8259
	C1785.6934,628.9482,1783.3564,622.595,1779.4385,617.5256z M436.2881,335h1127.4258l142.3252,270.8508H293.9614L436.2881,335z
	 M1421.8721,665.8508c-4.2432,40.9111-17.1543,78.3992-37.4102,107.7346c-22.7783,32.9893-51.9648,51.1572-82.1846,51.1572
	c-30.2188,0-59.4053-18.168-82.1836-51.1572c-20.2559-29.3359-33.168-66.8237-37.4111-107.7346H1421.8721z M1119.5947,665.8508
	c-4.2432,40.9111-17.1543,78.3992-37.4102,107.7346c-22.7783,32.9893-51.9648,51.1572-82.1841,51.1572
	s-59.4063-18.168-82.1846-51.1572c-20.2554-29.3359-33.167-66.8237-37.4106-107.7346H1119.5947z M817.3174,665.8508
	c-4.2432,40.9111-17.1543,78.3992-37.4102,107.7346c-22.7778,32.9893-51.9648,51.1572-82.1846,51.1572
	c-30.2188,0-59.4053-18.168-82.1831-51.1572c-20.2554-29.3359-33.167-66.8237-37.4106-107.7346H817.3174z M313.2612,773.5854
	c-20.2554-29.3359-33.167-66.8237-37.4106-107.7346H515.041c-4.2437,40.9109-17.1553,78.3989-37.4106,107.7346
	c-22.7783,32.9893-51.9653,51.1572-82.1846,51.1572S336.04,806.5747,313.2612,773.5854z M1226.9082,1665H773.0923v-345.5884
	c0-119.3901,97.1313-216.5212,216.522-216.5212h20.7725c119.3906,0,216.5215,97.1311,216.5215,216.5212V1665z M1616.5742,1665
	h-329.666v-345.5884c0-73.5894-28.8379-142.9551-81.2031-195.3193c-52.3643-52.3638-121.7295-81.2019-195.3184-81.2019h-20.7725
	c-73.5894,0-142.9551,28.8381-195.3193,81.2024c-52.3643,52.3638-81.2026,121.7295-81.2026,195.3188V1665H383.4277V884.1985
	c3.9824,0.3484,7.9873,0.5442,12.0181,0.5442c26.0161,0,51.082-7.2739,74.501-21.6196
	c21.5879-13.2239,40.7852-31.8787,57.0576-55.4463c7.2896-10.5571,13.8228-21.8865,19.5806-33.8403
	c5.7578,11.9539,12.291,23.2832,19.5806,33.8403c16.2725,23.5674,35.4692,42.2222,57.0571,55.4463
	c23.4189,14.3457,48.4844,21.6196,74.5,21.6196c26.0161,0,51.082-7.2739,74.501-21.6196
	c21.5879-13.2239,40.7852-31.8789,57.0576-55.4463c7.2891-10.5571,13.8228-21.8865,19.5806-33.8403
	c5.7573,11.9541,12.291,23.2834,19.5806,33.8406c16.2729,23.5674,35.4697,42.2222,57.0576,55.446
	c23.4189,14.3457,48.4844,21.6196,74.5005,21.6196s51.0815-7.2739,74.5005-21.6196c21.5879-13.2241,40.7852-31.8789,57.0576-55.4463
	c7.2891-10.5571,13.8223-21.8865,19.5801-33.8401c5.7578,11.9539,12.291,23.2832,19.5811,33.8403
	c16.2725,23.5671,35.4697,42.2219,57.0576,55.446c23.4189,14.3457,48.4844,21.6196,74.5,21.6196
	c26.0166,0,51.082-7.2739,74.501-21.6196c21.5879-13.2239,40.7852-31.8789,57.0576-55.4463
	c7.2891-10.5571,13.8223-21.8865,19.5801-33.8401c5.7578,11.9539,12.291,23.2832,19.5811,33.8403
	c16.2725,23.5671,35.4697,42.2219,57.0576,55.446c23.4189,14.3457,48.4844,21.6196,74.5,21.6196
	c4.0313,0,8.0371-0.1958,12.0195-0.5444V1665z M1686.7393,773.5854c-14.876,21.5449-32.4863,36.7637-51.332,44.7329
	c-0.2549,0.1025-0.5098,0.2056-0.7607,0.3149c-9.7754,4.0249-19.873,6.1094-30.0918,6.1094
	c-30.2188,0-59.4053-18.168-82.1836-51.1572c-20.2559-29.3359-33.168-66.8237-37.4111-107.7346h239.1895
	C1719.9063,706.762,1706.9951,744.25,1686.7393,773.5854z"></path></svg>